<?xml version="1.0" encoding="UTF-8"?>
<svg xmlns="http://www.w3.org/2000/svg" xmlns:xlink="http://www.w3.org/1999/xlink" width="854" height="480" viewBox="0 0 854 480">
<defs>
<g>
<g id="glyph-0-0">
<path d="M 3.292969 -4.949219 L 5.011719 -4.949219 C 5.660156 -4.949219 6.152344 -5.121094 6.492188 -5.472656 C 6.828125 -5.820312 7 -6.324219 7 -6.984375 C 7 -7.648438 6.828125 -8.15625 6.492188 -8.503906 C 6.152344 -8.851562 5.660156 -9.023438 5.011719 -9.023438 L 3.292969 -9.023438 L 3.292969 -4.949219 M 0.734375 0 L 0.734375 -0.691406 L 1.972656 -0.691406 L 1.972656 -9.023438 L 0.734375 -9.023438 L 0.734375 -9.71875 L 5.332031 -9.71875 C 6.304688 -9.71875 7.074219 -9.472656 7.644531 -8.980469 C 8.210938 -8.488281 8.496094 -7.824219 8.496094 -6.984375 C 8.496094 -6.152344 8.210938 -5.488281 7.644531 -4.992188 C 7.074219 -4.5 6.304688 -4.25 5.332031 -4.25 L 3.292969 -4.25 L 3.292969 -0.691406 L 4.796875 -0.691406 L 4.796875 0 Z "/>
</g>
<g id="glyph-0-1">
<path d="M 0.546875 0 L 0.546875 -0.691406 L 1.628906 -0.691406 L 1.628906 -9.441406 L 0.480469 -9.441406 L 0.480469 -10.128906 L 2.824219 -10.128906 L 2.824219 -5.691406 C 3.046875 -6.160156 3.335938 -6.511719 3.6875 -6.75 C 4.042969 -6.988281 4.453125 -7.109375 4.921875 -7.109375 C 5.6875 -7.109375 6.246094 -6.890625 6.609375 -6.453125 C 6.96875 -6.011719 7.148438 -5.328125 7.148438 -4.402344 L 7.148438 -0.691406 L 8.214844 -0.691406 L 8.214844 0 L 4.910156 0 L 4.910156 -0.691406 L 5.945312 -0.691406 L 5.945312 -4.023438 C 5.945312 -4.871094 5.839844 -5.449219 5.632812 -5.757812 C 5.429688 -6.070312 5.0625 -6.222656 4.53125 -6.222656 C 3.976562 -6.222656 3.550781 -6.023438 3.261719 -5.617188 C 2.972656 -5.214844 2.824219 -4.625 2.824219 -3.855469 L 2.824219 -0.691406 L 3.867188 -0.691406 L 3.867188 0 Z "/>
</g>
<g id="glyph-0-2">
<path d="M 2.878906 1.269531 L 3.332031 0.117188 L 0.75 -6.222656 L -0.0390625 -6.222656 L -0.0390625 -6.921875 L 3.144531 -6.921875 L 3.144531 -6.222656 L 2.039062 -6.222656 L 3.984375 -1.464844 L 5.929688 -6.222656 L 4.894531 -6.222656 L 4.894531 -6.921875 L 7.492188 -6.921875 L 7.492188 -6.222656 L 6.71875 -6.222656 L 3.546875 1.5625 C 3.332031 2.101562 3.089844 2.46875 2.824219 2.664062 C 2.5625 2.863281 2.1875 2.960938 1.707031 2.960938 C 1.5 2.960938 1.292969 2.945312 1.078125 2.910156 C 0.863281 2.875 0.648438 2.824219 0.429688 2.761719 L 0.429688 1.4375 L 1.042969 1.4375 C 1.066406 1.734375 1.140625 1.945312 1.265625 2.074219 C 1.390625 2.203125 1.582031 2.265625 1.84375 2.265625 C 2.082031 2.265625 2.273438 2.199219 2.417969 2.066406 C 2.5625 1.933594 2.71875 1.667969 2.878906 1.269531 Z "/>
</g>
<g id="glyph-0-3">
<path d="M 0.75 -0.382812 L 0.75 -2 L 1.4375 -2 C 1.457031 -1.480469 1.617188 -1.097656 1.921875 -0.839844 C 2.230469 -0.582031 2.683594 -0.457031 3.28125 -0.457031 C 3.820312 -0.457031 4.230469 -0.554688 4.511719 -0.757812 C 4.792969 -0.960938 4.933594 -1.253906 4.933594 -1.640625 C 4.933594 -1.945312 4.832031 -2.191406 4.625 -2.375 C 4.417969 -2.5625 3.984375 -2.761719 3.320312 -2.976562 L 2.453125 -3.269531 C 1.859375 -3.460938 1.429688 -3.699219 1.164062 -3.984375 C 0.894531 -4.269531 0.761719 -4.636719 0.761719 -5.078125 C 0.761719 -5.710938 0.992188 -6.207031 1.457031 -6.570312 C 1.921875 -6.929688 2.566406 -7.109375 3.386719 -7.109375 C 3.75 -7.109375 4.132812 -7.0625 4.539062 -6.964844 C 4.941406 -6.871094 5.359375 -6.730469 5.789062 -6.550781 L 5.789062 -5.039062 L 5.097656 -5.039062 C 5.082031 -5.484375 4.925781 -5.835938 4.628906 -6.085938 C 4.332031 -6.339844 3.933594 -6.464844 3.425781 -6.464844 C 2.921875 -6.464844 2.539062 -6.375 2.28125 -6.199219 C 2.023438 -6.019531 1.894531 -5.753906 1.894531 -5.398438 C 1.894531 -5.105469 1.992188 -4.875 2.1875 -4.695312 C 2.382812 -4.523438 2.773438 -4.34375 3.359375 -4.160156 L 4.308594 -3.867188 C 4.964844 -3.664062 5.4375 -3.40625 5.726562 -3.101562 C 6.015625 -2.796875 6.160156 -2.402344 6.160156 -1.921875 C 6.160156 -1.265625 5.90625 -0.75 5.40625 -0.375 C 4.90625 0 4.214844 0.1875 3.332031 0.1875 C 2.886719 0.1875 2.449219 0.140625 2.023438 0.046875 C 1.597656 -0.0507812 1.175781 -0.191406 0.75 -0.382812 Z "/>
</g>
<g id="glyph-0-4">
<path d="M 1.296875 -9.070312 C 1.296875 -9.269531 1.367188 -9.441406 1.511719 -9.589844 C 1.660156 -9.738281 1.832031 -9.8125 2.039062 -9.8125 C 2.238281 -9.8125 2.410156 -9.738281 2.554688 -9.589844 C 2.699219 -9.441406 2.773438 -9.269531 2.773438 -9.070312 C 2.773438 -8.863281 2.703125 -8.691406 2.558594 -8.546875 C 2.414062 -8.40625 2.242188 -8.332031 2.039062 -8.332031 C 1.832031 -8.332031 1.660156 -8.40625 1.511719 -8.546875 C 1.367188 -8.691406 1.296875 -8.863281 1.296875 -9.070312 M 2.824219 -0.691406 L 3.957031 -0.691406 L 3.957031 0 L 0.480469 0 L 0.480469 -0.691406 L 1.628906 -0.691406 L 1.628906 -6.222656 L 0.480469 -6.222656 L 0.480469 -6.921875 L 2.824219 -6.921875 Z "/>
</g>
<g id="glyph-0-5">
<path d="M 6.855469 -2.078125 C 6.6875 -1.339844 6.359375 -0.777344 5.878906 -0.390625 C 5.398438 -0.00390625 4.773438 0.1875 4.011719 0.1875 C 3.003906 0.1875 2.195312 -0.144531 1.582031 -0.808594 C 0.96875 -1.476562 0.664062 -2.359375 0.664062 -3.464844 C 0.664062 -4.570312 0.96875 -5.453125 1.582031 -6.117188 C 2.195312 -6.777344 3.003906 -7.109375 4.011719 -7.109375 C 4.449219 -7.109375 4.886719 -7.058594 5.320312 -6.957031 C 5.753906 -6.855469 6.1875 -6.699219 6.628906 -6.492188 L 6.628906 -4.71875 L 5.929688 -4.71875 C 5.839844 -5.328125 5.640625 -5.769531 5.335938 -6.046875 C 5.027344 -6.324219 4.59375 -6.464844 4.023438 -6.464844 C 3.375 -6.464844 2.886719 -6.214844 2.558594 -5.710938 C 2.230469 -5.210938 2.0625 -4.460938 2.0625 -3.464844 C 2.0625 -2.464844 2.226562 -1.714844 2.554688 -1.210938 C 2.882812 -0.707031 3.371094 -0.457031 4.023438 -0.457031 C 4.539062 -0.457031 4.953125 -0.589844 5.261719 -0.859375 C 5.570312 -1.128906 5.777344 -1.535156 5.890625 -2.078125 Z "/>
</g>
<g id="glyph-0-6">
<path d="M 5.304688 -2.175781 L 5.304688 -3.640625 L 3.761719 -3.640625 C 3.167969 -3.640625 2.726562 -3.511719 2.433594 -3.253906 C 2.144531 -3 2 -2.605469 2 -2.078125 C 2 -1.59375 2.144531 -1.214844 2.441406 -0.929688 C 2.738281 -0.648438 3.136719 -0.507812 3.640625 -0.507812 C 4.136719 -0.507812 4.539062 -0.660156 4.847656 -0.96875 C 5.152344 -1.277344 5.304688 -1.679688 5.304688 -2.175781 M 6.503906 -4.324219 L 6.503906 -0.691406 L 7.570312 -0.691406 L 7.570312 0 L 5.304688 0 L 5.304688 -0.75 C 5.042969 -0.425781 4.734375 -0.191406 4.386719 -0.0390625 C 4.039062 0.113281 3.636719 0.1875 3.171875 0.1875 C 2.402344 0.1875 1.792969 -0.015625 1.339844 -0.421875 C 0.890625 -0.832031 0.664062 -1.382812 0.664062 -2.078125 C 0.664062 -2.792969 0.921875 -3.347656 1.4375 -3.742188 C 1.957031 -4.136719 2.683594 -4.335938 3.625 -4.335938 L 5.304688 -4.335938 L 5.304688 -4.8125 C 5.304688 -5.335938 5.144531 -5.742188 4.828125 -6.03125 C 4.507812 -6.320312 4.058594 -6.464844 3.484375 -6.464844 C 3.003906 -6.464844 2.625 -6.355469 2.34375 -6.140625 C 2.0625 -5.921875 1.886719 -5.601562 1.816406 -5.175781 L 1.199219 -5.175781 L 1.199219 -6.574219 C 1.613281 -6.753906 2.019531 -6.886719 2.414062 -6.976562 C 2.804688 -7.066406 3.1875 -7.109375 3.5625 -7.109375 C 4.519531 -7.109375 5.25 -6.871094 5.75 -6.394531 C 6.253906 -5.921875 6.503906 -5.230469 6.503906 -4.324219 Z "/>
</g>
<g id="glyph-0-7">
<path d="M 2.734375 -0.691406 L 3.867188 -0.691406 L 3.867188 0 L 0.382812 0 L 0.382812 -0.691406 L 1.535156 -0.691406 L 1.535156 -9.441406 L 0.382812 -9.441406 L 0.382812 -10.128906 L 2.734375 -10.128906 Z "/>
</g>
<g id="glyph-0-8">
</g>
<g id="glyph-0-9">
<path d="M 0.734375 0 L 0.734375 -0.691406 L 1.972656 -0.691406 L 1.972656 -9.023438 L 0.664062 -9.023438 L 0.664062 -9.71875 L 3.496094 -9.71875 L 6.90625 -2.800781 L 10.320312 -9.71875 L 12.976562 -9.71875 L 12.976562 -9.023438 L 11.679688 -9.023438 L 11.679688 -0.691406 L 12.921875 -0.691406 L 12.921875 0 L 9.121094 0 L 9.121094 -0.691406 L 10.359375 -0.691406 L 10.359375 -8.203125 L 7.023438 -1.425781 L 6.105469 -1.425781 L 2.773438 -8.203125 L 2.773438 -0.691406 L 4.011719 -0.691406 L 4.011719 0 Z "/>
</g>
<g id="glyph-0-10">
<path d="M 7.226562 -3.332031 L 2.0625 -3.332031 L 2.0625 -3.28125 C 2.0625 -2.347656 2.238281 -1.644531 2.589844 -1.167969 C 2.941406 -0.691406 3.460938 -0.457031 4.148438 -0.457031 C 4.671875 -0.457031 5.101562 -0.59375 5.4375 -0.867188 C 5.777344 -1.144531 6.011719 -1.554688 6.144531 -2.097656 L 7.109375 -2.097656 C 6.917969 -1.335938 6.566406 -0.765625 6.050781 -0.382812 C 5.535156 -0.00390625 4.859375 0.1875 4.023438 0.1875 C 3.011719 0.1875 2.199219 -0.144531 1.585938 -0.808594 C 0.972656 -1.476562 0.664062 -2.359375 0.664062 -3.464844 C 0.664062 -4.558594 0.964844 -5.4375 1.570312 -6.105469 C 2.171875 -6.773438 2.964844 -7.109375 3.945312 -7.109375 C 4.992188 -7.109375 5.792969 -6.785156 6.355469 -6.140625 C 6.914062 -5.496094 7.203125 -4.5625 7.226562 -3.332031 M 5.8125 -4.023438 C 5.789062 -4.832031 5.617188 -5.4375 5.300781 -5.847656 C 4.988281 -6.257812 4.535156 -6.464844 3.945312 -6.464844 C 3.394531 -6.464844 2.960938 -6.257812 2.644531 -5.847656 C 2.328125 -5.433594 2.132812 -4.828125 2.0625 -4.023438 Z "/>
</g>
<g id="glyph-0-11">
<path d="M 0.546875 0 L 0.546875 -0.691406 L 1.628906 -0.691406 L 1.628906 -6.222656 L 0.480469 -6.222656 L 0.480469 -6.921875 L 2.824219 -6.921875 L 2.824219 -5.691406 C 3.046875 -6.160156 3.335938 -6.511719 3.6875 -6.75 C 4.042969 -6.988281 4.453125 -7.109375 4.921875 -7.109375 C 5.6875 -7.109375 6.246094 -6.890625 6.609375 -6.453125 C 6.96875 -6.011719 7.148438 -5.328125 7.148438 -4.402344 L 7.148438 -0.691406 L 8.214844 -0.691406 L 8.214844 0 L 4.910156 0 L 4.910156 -0.691406 L 5.945312 -0.691406 L 5.945312 -4.023438 C 5.945312 -4.871094 5.839844 -5.449219 5.632812 -5.765625 C 5.421875 -6.078125 5.054688 -6.238281 4.53125 -6.238281 C 3.976562 -6.238281 3.550781 -6.035156 3.261719 -5.628906 C 2.972656 -5.222656 2.824219 -4.632812 2.824219 -3.855469 L 2.824219 -0.691406 L 3.867188 -0.691406 L 3.867188 0 Z "/>
</g>
<g id="glyph-0-12">
<path d="M 7 -6.222656 L 7 -0.148438 C 7 0.84375 6.726562 1.609375 6.179688 2.152344 C 5.632812 2.691406 4.851562 2.960938 3.839844 2.960938 C 3.386719 2.960938 2.949219 2.921875 2.53125 2.839844 C 2.117188 2.757812 1.714844 2.632812 1.335938 2.46875 L 1.335938 1.015625 L 1.960938 1.015625 C 2.039062 1.46875 2.222656 1.796875 2.511719 2.003906 C 2.804688 2.214844 3.21875 2.316406 3.761719 2.316406 C 4.464844 2.316406 4.980469 2.117188 5.308594 1.722656 C 5.636719 1.324219 5.800781 0.699219 5.800781 -0.148438 L 5.800781 -1.082031 C 5.566406 -0.648438 5.269531 -0.328125 4.90625 -0.121094 C 4.542969 0.0859375 4.09375 0.1875 3.5625 0.1875 C 2.710938 0.1875 2.015625 -0.148438 1.472656 -0.824219 C 0.933594 -1.5 0.664062 -2.378906 0.664062 -3.464844 C 0.664062 -4.546875 0.933594 -5.425781 1.472656 -6.101562 C 2.007812 -6.773438 2.707031 -7.109375 3.5625 -7.109375 C 4.09375 -7.109375 4.542969 -7.007812 4.90625 -6.800781 C 5.269531 -6.59375 5.566406 -6.273438 5.800781 -5.839844 L 5.800781 -6.921875 L 8.144531 -6.921875 L 8.144531 -6.222656 L 7 -6.222656 M 5.800781 -3.800781 C 5.800781 -4.632812 5.640625 -5.265625 5.320312 -5.703125 C 5.003906 -6.140625 4.539062 -6.359375 3.933594 -6.359375 C 3.316406 -6.359375 2.851562 -6.117188 2.535156 -5.632812 C 2.222656 -5.144531 2.0625 -4.421875 2.0625 -3.464844 C 2.0625 -2.507812 2.222656 -1.785156 2.535156 -1.296875 C 2.851562 -0.804688 3.316406 -0.558594 3.933594 -0.558594 C 4.539062 -0.558594 5.003906 -0.777344 5.320312 -1.214844 C 5.640625 -1.648438 5.800781 -2.285156 5.800781 -3.117188 Z "/>
</g>
<g id="glyph-0-13">
<path d="M 4.011719 -0.457031 C 4.652344 -0.457031 5.136719 -0.710938 5.464844 -1.21875 C 5.792969 -1.726562 5.957031 -2.472656 5.957031 -3.464844 C 5.957031 -4.453125 5.792969 -5.199219 5.464844 -5.707031 C 5.136719 -6.210938 4.652344 -6.464844 4.011719 -6.464844 C 3.367188 -6.464844 2.882812 -6.210938 2.554688 -5.707031 C 2.226562 -5.199219 2.0625 -4.453125 2.0625 -3.464844 C 2.0625 -2.472656 2.230469 -1.726562 2.558594 -1.21875 C 2.886719 -0.710938 3.371094 -0.457031 4.011719 -0.457031 M 4.011719 0.1875 C 3.003906 0.1875 2.195312 -0.144531 1.582031 -0.808594 C 0.96875 -1.476562 0.664062 -2.359375 0.664062 -3.464844 C 0.664062 -4.566406 0.96875 -5.449219 1.578125 -6.113281 C 2.1875 -6.777344 3 -7.109375 4.011719 -7.109375 C 5.023438 -7.109375 5.832031 -6.777344 6.441406 -6.113281 C 7.050781 -5.449219 7.355469 -4.566406 7.355469 -3.464844 C 7.355469 -2.359375 7.050781 -1.476562 6.441406 -0.808594 C 5.832031 -0.144531 5.023438 0.1875 4.011719 0.1875 Z "/>
</g>
<g id="glyph-0-14">
<path d="M 5.734375 -8.496094 L 5.105469 -8.496094 C 5.101562 -8.820312 5.007812 -9.070312 4.828125 -9.238281 C 4.648438 -9.40625 4.386719 -9.492188 4.042969 -9.492188 C 3.597656 -9.492188 3.28125 -9.371094 3.097656 -9.125 C 2.917969 -8.878906 2.824219 -8.441406 2.824219 -7.8125 L 2.824219 -6.921875 L 4.757812 -6.921875 L 4.757812 -6.222656 L 2.824219 -6.222656 L 2.824219 -0.691406 L 4.363281 -0.691406 L 4.363281 0 L 0.480469 0 L 0.480469 -0.691406 L 1.628906 -0.691406 L 1.628906 -6.222656 L 0.480469 -6.222656 L 0.480469 -6.921875 L 1.628906 -6.921875 L 1.628906 -7.785156 C 1.628906 -8.558594 1.828125 -9.144531 2.230469 -9.539062 C 2.632812 -9.933594 3.21875 -10.128906 3.996094 -10.128906 C 4.289062 -10.128906 4.578125 -10.105469 4.871094 -10.050781 C 5.160156 -10 5.449219 -9.917969 5.734375 -9.8125 Z "/>
</g>
<g id="glyph-0-15">
<path d="M 4.636719 -0.390625 C 4.90625 0.875 4.914062 1.746094 4.660156 2.214844 C 4.457031 2.585938 4.207031 2.777344 3.90625 2.785156 C 3.445312 2.800781 3.117188 2.582031 2.917969 2.136719 C 2.691406 1.632812 2.878906 0.886719 3.484375 -0.105469 L 1.628906 -6.222656 L 0.480469 -6.222656 L 0.480469 -6.921875 L 2.695312 -6.921875 L 4.382812 -1.296875 C 5.367188 -2.621094 5.917969 -3.738281 6.035156 -4.648438 C 6.089844 -5.078125 6.066406 -5.4375 5.957031 -5.730469 C 5.785156 -6.195312 5.59375 -6.460938 5.382812 -6.535156 L 5.382812 -6.921875 L 6.113281 -6.921875 C 6.617188 -6.617188 6.929688 -6.335938 7.050781 -6.082031 C 7.222656 -5.714844 7.3125 -5.417969 7.3125 -5.1875 C 7.3125 -4.769531 7.085938 -4.140625 6.640625 -3.308594 C 6.46875 -2.980469 5.796875 -2.007812 4.636719 -0.390625 Z "/>
</g>
</g>
</defs>
<g fill="rgb(100%, 100%, 100%)" fill-opacity="1">
<use xlink:href="#glyph-0-0" x="30" y="32.375977"/>
<use xlink:href="#glyph-0-1" x="39" y="32.375977"/>
<use xlink:href="#glyph-0-2" x="48" y="32.375977"/>
<use xlink:href="#glyph-0-3" x="56" y="32.375977"/>
<use xlink:href="#glyph-0-4" x="63" y="32.375977"/>
<use xlink:href="#glyph-0-5" x="67" y="32.375977"/>
<use xlink:href="#glyph-0-6" x="74" y="32.375977"/>
<use xlink:href="#glyph-0-7" x="82" y="32.375977"/>
<use xlink:href="#glyph-0-8" x="86" y="32.375977"/>
<use xlink:href="#glyph-0-9" x="90" y="32.375977"/>
<use xlink:href="#glyph-0-10" x="104" y="32.375977"/>
<use xlink:href="#glyph-0-6" x="112" y="32.375977"/>
<use xlink:href="#glyph-0-11" x="120" y="32.375977"/>
<use xlink:href="#glyph-0-4" x="129" y="32.375977"/>
<use xlink:href="#glyph-0-11" x="133" y="32.375977"/>
<use xlink:href="#glyph-0-12" x="142" y="32.375977"/>
<use xlink:href="#glyph-0-8" x="151" y="32.375977"/>
<use xlink:href="#glyph-0-13" x="155" y="32.375977"/>
<use xlink:href="#glyph-0-14" x="163" y="32.375977"/>
<use xlink:href="#glyph-0-8" x="168" y="32.375977"/>
</g>
<g fill="rgb(100%, 100%, 100%)" fill-opacity="1">
<use xlink:href="#glyph-0-15" x="172" y="32.375977"/>
</g>
</svg>
