<?xml version="1.0" encoding="UTF-8"?>
<svg xmlns="http://www.w3.org/2000/svg" xmlns:xlink="http://www.w3.org/1999/xlink" width="854" height="480" viewBox="0 0 854 480">
<defs>
<g>
<g id="glyph-0-0">
<path d="M 9.402344 -2.570312 C 9.113281 -1.664062 8.632812 -0.976562 7.957031 -0.511719 C 7.285156 -0.0429688 6.429688 0.1875 5.398438 0.1875 C 4.761719 0.1875 4.175781 0.0820312 3.632812 -0.136719 C 3.089844 -0.355469 2.609375 -0.671875 2.1875 -1.09375 C 1.703125 -1.578125 1.339844 -2.132812 1.101562 -2.75 C 0.867188 -3.367188 0.75 -4.070312 0.75 -4.851562 C 0.75 -6.359375 1.183594 -7.578125 2.058594 -8.507812 C 2.929688 -9.433594 4.078125 -9.894531 5.507812 -9.894531 C 6.039062 -9.894531 6.601562 -9.828125 7.199219 -9.6875 C 7.800781 -9.546875 8.445312 -9.339844 9.132812 -9.054688 L 9.132812 -6.816406 L 8.398438 -6.816406 C 8.238281 -7.632812 7.914062 -8.234375 7.429688 -8.621094 C 6.949219 -9.007812 6.269531 -9.199219 5.398438 -9.199219 C 4.359375 -9.199219 3.574219 -8.832031 3.039062 -8.09375 C 2.507812 -7.359375 2.238281 -6.277344 2.238281 -4.851562 C 2.238281 -3.425781 2.507812 -2.347656 3.039062 -1.609375 C 3.574219 -0.875 4.359375 -0.507812 5.398438 -0.507812 C 6.121094 -0.507812 6.71875 -0.679688 7.1875 -1.023438 C 7.65625 -1.371094 7.996094 -1.886719 8.203125 -2.570312 Z "/>
</g>
<g id="glyph-0-1">
<path d="M 4.011719 -0.457031 C 4.652344 -0.457031 5.136719 -0.710938 5.464844 -1.21875 C 5.792969 -1.726562 5.957031 -2.472656 5.957031 -3.464844 C 5.957031 -4.453125 5.792969 -5.199219 5.464844 -5.707031 C 5.136719 -6.210938 4.652344 -6.464844 4.011719 -6.464844 C 3.367188 -6.464844 2.882812 -6.210938 2.554688 -5.707031 C 2.226562 -5.199219 2.0625 -4.453125 2.0625 -3.464844 C 2.0625 -2.472656 2.230469 -1.726562 2.558594 -1.21875 C 2.886719 -0.710938 3.371094 -0.457031 4.011719 -0.457031 M 4.011719 0.1875 C 3.003906 0.1875 2.195312 -0.144531 1.582031 -0.808594 C 0.96875 -1.476562 0.664062 -2.359375 0.664062 -3.464844 C 0.664062 -4.566406 0.96875 -5.449219 1.578125 -6.113281 C 2.1875 -6.777344 3 -7.109375 4.011719 -7.109375 C 5.023438 -7.109375 5.832031 -6.777344 6.441406 -6.113281 C 7.050781 -5.449219 7.355469 -4.566406 7.355469 -3.464844 C 7.355469 -2.359375 7.050781 -1.476562 6.441406 -0.808594 C 5.832031 -0.144531 5.023438 0.1875 4.011719 0.1875 Z "/>
</g>
<g id="glyph-0-2">
<path d="M 6.90625 -5.574219 C 7.136719 -6.082031 7.429688 -6.464844 7.789062 -6.722656 C 8.148438 -6.980469 8.566406 -7.109375 9.042969 -7.109375 C 9.769531 -7.109375 10.308594 -6.882812 10.664062 -6.433594 C 11.019531 -5.984375 11.199219 -5.308594 11.199219 -4.402344 L 11.199219 -0.691406 L 12.277344 -0.691406 L 12.277344 0 L 8.957031 0 L 8.957031 -0.691406 L 10 -0.691406 L 10 -4.265625 C 10 -4.972656 9.894531 -5.476562 9.6875 -5.773438 C 9.480469 -6.074219 9.132812 -6.222656 8.652344 -6.222656 C 8.117188 -6.222656 7.710938 -6.023438 7.429688 -5.617188 C 7.152344 -5.214844 7.011719 -4.625 7.011719 -3.855469 L 7.011719 -0.691406 L 8.054688 -0.691406 L 8.054688 0 L 4.773438 0 L 4.773438 -0.691406 L 5.8125 -0.691406 L 5.8125 -4.308594 C 5.8125 -5 5.710938 -5.492188 5.5 -5.785156 C 5.292969 -6.078125 4.949219 -6.222656 4.464844 -6.222656 C 3.933594 -6.222656 3.523438 -6.023438 3.246094 -5.617188 C 2.964844 -5.214844 2.824219 -4.625 2.824219 -3.855469 L 2.824219 -0.691406 L 3.867188 -0.691406 L 3.867188 0 L 0.546875 0 L 0.546875 -0.691406 L 1.628906 -0.691406 L 1.628906 -6.238281 L 0.480469 -6.238281 L 0.480469 -6.921875 L 2.824219 -6.921875 L 2.824219 -5.691406 C 3.046875 -6.148438 3.328125 -6.5 3.671875 -6.746094 C 4.015625 -6.988281 4.402344 -7.109375 4.835938 -7.109375 C 5.375 -7.109375 5.824219 -6.976562 6.183594 -6.707031 C 6.546875 -6.441406 6.785156 -6.0625 6.90625 -5.574219 Z "/>
</g>
<g id="glyph-0-3">
<path d="M 2.734375 -3.800781 L 2.734375 -3.117188 C 2.734375 -2.285156 2.894531 -1.648438 3.210938 -1.214844 C 3.53125 -0.777344 3.996094 -0.558594 4.601562 -0.558594 C 5.214844 -0.558594 5.679688 -0.804688 5.992188 -1.296875 C 6.308594 -1.785156 6.464844 -2.507812 6.464844 -3.464844 C 6.464844 -4.421875 6.308594 -5.144531 5.992188 -5.632812 C 5.679688 -6.117188 5.214844 -6.359375 4.601562 -6.359375 C 3.996094 -6.359375 3.53125 -6.140625 3.210938 -5.703125 C 2.894531 -5.265625 2.734375 -4.632812 2.734375 -3.800781 M 1.535156 -6.222656 L 0.382812 -6.222656 L 0.382812 -6.921875 L 2.734375 -6.921875 L 2.734375 -5.839844 C 2.96875 -6.273438 3.265625 -6.59375 3.628906 -6.800781 C 3.992188 -7.007812 4.441406 -7.109375 4.972656 -7.109375 C 5.824219 -7.109375 6.519531 -6.773438 7.058594 -6.101562 C 7.59375 -5.425781 7.863281 -4.546875 7.863281 -3.464844 C 7.863281 -2.378906 7.59375 -1.5 7.058594 -0.824219 C 6.519531 -0.148438 5.824219 0.1875 4.972656 0.1875 C 4.441406 0.1875 3.992188 0.0859375 3.628906 -0.121094 C 3.265625 -0.328125 2.96875 -0.648438 2.734375 -1.082031 L 2.734375 2.078125 L 3.867188 2.078125 L 3.867188 2.773438 L 0.382812 2.773438 L 0.382812 2.078125 L 1.535156 2.078125 Z "/>
</g>
<g id="glyph-0-4">
<path d="M 1.4375 -6.222656 L 0.382812 -6.222656 L 0.382812 -6.921875 L 1.4375 -6.921875 L 1.4375 -9.070312 L 2.644531 -9.070312 L 2.644531 -6.921875 L 4.894531 -6.921875 L 4.894531 -6.222656 L 2.644531 -6.222656 L 2.644531 -1.828125 C 2.644531 -1.242188 2.699219 -0.867188 2.8125 -0.703125 C 2.925781 -0.539062 3.132812 -0.457031 3.4375 -0.457031 C 3.75 -0.457031 3.976562 -0.546875 4.121094 -0.730469 C 4.265625 -0.917969 4.339844 -1.214844 4.347656 -1.628906 L 5.253906 -1.628906 C 5.21875 -1 5.046875 -0.539062 4.738281 -0.246094 C 4.429688 0.0429688 3.960938 0.1875 3.332031 0.1875 C 2.644531 0.1875 2.15625 0.0351562 1.867188 -0.269531 C 1.582031 -0.578125 1.4375 -1.097656 1.4375 -1.828125 Z "/>
</g>
<g id="glyph-0-5">
<path d="M 0.546875 0 L 0.546875 -0.691406 L 1.628906 -0.691406 L 1.628906 -6.222656 L 0.480469 -6.222656 L 0.480469 -6.921875 L 2.824219 -6.921875 L 2.824219 -5.691406 C 3.046875 -6.160156 3.335938 -6.511719 3.6875 -6.75 C 4.042969 -6.988281 4.453125 -7.109375 4.921875 -7.109375 C 5.6875 -7.109375 6.246094 -6.890625 6.609375 -6.453125 C 6.96875 -6.011719 7.148438 -5.328125 7.148438 -4.402344 L 7.148438 -0.691406 L 8.214844 -0.691406 L 8.214844 0 L 4.910156 0 L 4.910156 -0.691406 L 5.945312 -0.691406 L 5.945312 -4.023438 C 5.945312 -4.871094 5.839844 -5.449219 5.632812 -5.765625 C 5.421875 -6.078125 5.054688 -6.238281 4.53125 -6.238281 C 3.976562 -6.238281 3.550781 -6.035156 3.261719 -5.628906 C 2.972656 -5.222656 2.824219 -4.632812 2.824219 -3.855469 L 2.824219 -0.691406 L 3.867188 -0.691406 L 3.867188 0 Z "/>
</g>
<g id="glyph-0-6">
</g>
<g id="glyph-0-7">
<path d="M 0.734375 0 L 0.734375 -0.691406 L 1.972656 -0.691406 L 1.972656 -9.023438 L 0.734375 -9.023438 L 0.734375 -9.71875 L 8.5625 -9.71875 L 8.5625 -7.558594 L 7.761719 -7.558594 L 7.761719 -8.917969 L 3.292969 -8.917969 L 3.292969 -5.664062 L 6.476562 -5.664062 L 6.476562 -6.882812 L 7.277344 -6.882812 L 7.277344 -3.652344 L 6.476562 -3.652344 L 6.476562 -4.871094 L 3.292969 -4.871094 L 3.292969 -0.800781 L 7.863281 -0.800781 L 7.863281 -2.160156 L 8.664062 -2.160156 L 8.664062 0 Z "/>
</g>
<g id="glyph-0-8">
<path d="M 6.171875 -6.21875 L 2.824219 -6.222656 L 2.824219 -0.691406 L 4.363281 -0.691406 L 4.363281 0 L 0.480469 0 L 0.480469 -0.691406 L 1.628906 -0.691406 L 1.628906 -6.222656 L 0.480469 -6.222656 L 0.480469 -6.921875 L 1.628906 -6.921875 L 1.628906 -7.785156 C 1.628906 -8.558594 1.828125 -9.144531 2.226562 -9.539062 C 2.625 -9.933594 3.214844 -10.128906 3.996094 -10.128906 C 4.285156 -10.128906 4.574219 -10.105469 4.863281 -10.050781 C 5.152344 -10 5.441406 -9.917969 5.730469 -9.8125 L 5.730469 -8.496094 L 5.105469 -8.496094 C 5.09375 -8.820312 5.003906 -9.070312 4.824219 -9.238281 C 4.644531 -9.40625 4.382812 -9.492188 4.035156 -9.492188 C 3.59375 -9.492188 3.28125 -9.371094 3.097656 -9.125 C 2.917969 -8.878906 2.824219 -8.441406 2.824219 -7.8125 L 2.824219 -6.921875 L 6.171875 -6.921875 L 6.171875 -7.78125 C 6.171875 -8.554688 6.371094 -9.140625 6.769531 -9.535156 C 7.171875 -9.933594 7.761719 -10.128906 8.542969 -10.128906 C 8.828125 -10.128906 9.117188 -10.105469 9.40625 -10.050781 C 9.699219 -10 9.988281 -9.917969 10.273438 -9.8125 L 10.273438 -8.488281 L 9.648438 -8.488281 C 9.640625 -8.816406 9.546875 -9.0625 9.367188 -9.230469 C 9.191406 -9.402344 8.929688 -9.484375 8.582031 -9.484375 C 8.136719 -9.484375 7.824219 -9.363281 7.644531 -9.117188 C 7.460938 -8.871094 7.371094 -8.433594 7.371094 -7.804688 L 7.371094 -6.914062 L 9.296875 -6.914062 L 9.296875 -6.21875 L 7.371094 -6.21875 L 7.371094 -0.683594 L 8.90625 -0.683594 L 8.90625 0 L 5.027344 0 L 5.027344 -0.683594 L 6.171875 -0.683594 Z "/>
</g>
<g id="glyph-0-9">
<path d="M 7.226562 -3.332031 L 2.0625 -3.332031 L 2.0625 -3.28125 C 2.0625 -2.347656 2.238281 -1.644531 2.589844 -1.167969 C 2.941406 -0.691406 3.460938 -0.457031 4.148438 -0.457031 C 4.671875 -0.457031 5.101562 -0.59375 5.4375 -0.867188 C 5.777344 -1.144531 6.011719 -1.554688 6.144531 -2.097656 L 7.109375 -2.097656 C 6.917969 -1.335938 6.566406 -0.765625 6.050781 -0.382812 C 5.535156 -0.00390625 4.859375 0.1875 4.023438 0.1875 C 3.011719 0.1875 2.199219 -0.144531 1.585938 -0.808594 C 0.972656 -1.476562 0.664062 -2.359375 0.664062 -3.464844 C 0.664062 -4.558594 0.964844 -5.4375 1.570312 -6.105469 C 2.171875 -6.773438 2.964844 -7.109375 3.945312 -7.109375 C 4.992188 -7.109375 5.792969 -6.785156 6.355469 -6.140625 C 6.914062 -5.496094 7.203125 -4.5625 7.226562 -3.332031 M 5.8125 -4.023438 C 5.789062 -4.832031 5.617188 -5.4375 5.300781 -5.847656 C 4.988281 -6.257812 4.535156 -6.464844 3.945312 -6.464844 C 3.394531 -6.464844 2.960938 -6.257812 2.644531 -5.847656 C 2.328125 -5.433594 2.132812 -4.828125 2.0625 -4.023438 Z "/>
</g>
<g id="glyph-0-10">
<path d="M 6.855469 -2.078125 C 6.6875 -1.339844 6.359375 -0.777344 5.878906 -0.390625 C 5.398438 -0.00390625 4.773438 0.1875 4.011719 0.1875 C 3.003906 0.1875 2.195312 -0.144531 1.582031 -0.808594 C 0.96875 -1.476562 0.664062 -2.359375 0.664062 -3.464844 C 0.664062 -4.570312 0.96875 -5.453125 1.582031 -6.117188 C 2.195312 -6.777344 3.003906 -7.109375 4.011719 -7.109375 C 4.449219 -7.109375 4.886719 -7.058594 5.320312 -6.957031 C 5.753906 -6.855469 6.1875 -6.699219 6.628906 -6.492188 L 6.628906 -4.71875 L 5.929688 -4.71875 C 5.839844 -5.328125 5.640625 -5.769531 5.335938 -6.046875 C 5.027344 -6.324219 4.59375 -6.464844 4.023438 -6.464844 C 3.375 -6.464844 2.886719 -6.214844 2.558594 -5.710938 C 2.230469 -5.210938 2.0625 -4.460938 2.0625 -3.464844 C 2.0625 -2.464844 2.226562 -1.714844 2.554688 -1.210938 C 2.882812 -0.707031 3.371094 -0.457031 4.023438 -0.457031 C 4.539062 -0.457031 4.953125 -0.589844 5.261719 -0.859375 C 5.570312 -1.128906 5.777344 -1.535156 5.890625 -2.078125 Z "/>
</g>
</g>
</defs>
<g fill="rgb(100%, 100%, 100%)" fill-opacity="1">
<use xlink:href="#glyph-0-0" x="30" y="32.375977"/>
<use xlink:href="#glyph-0-1" x="40" y="32.375977"/>
<use xlink:href="#glyph-0-2" x="48" y="32.375977"/>
<use xlink:href="#glyph-0-3" x="61" y="32.375977"/>
<use xlink:href="#glyph-0-4" x="70" y="32.375977"/>
<use xlink:href="#glyph-0-1" x="75" y="32.375977"/>
<use xlink:href="#glyph-0-5" x="83" y="32.375977"/>
<use xlink:href="#glyph-0-6" x="92" y="32.375977"/>
<use xlink:href="#glyph-0-7" x="96" y="32.375977"/>
<use xlink:href="#glyph-0-8" x="106" y="32.375977"/>
<use xlink:href="#glyph-0-9" x="115" y="32.375977"/>
<use xlink:href="#glyph-0-10" x="123" y="32.375977"/>
<use xlink:href="#glyph-0-4" x="130" y="32.375977"/>
</g>
</svg>
