<?xml version="1.0" encoding="UTF-8"?>
<svg xmlns="http://www.w3.org/2000/svg" xmlns:xlink="http://www.w3.org/1999/xlink" width="854" height="480" viewBox="0 0 854 480">
<defs>
<g>
<g id="glyph-0-0">
<path d="M 0.734375 0 L 0.734375 -0.691406 L 1.972656 -0.691406 L 1.972656 -9.023438 L 0.734375 -9.023438 L 0.734375 -9.71875 L 8.691406 -9.71875 L 8.691406 -7.558594 L 7.890625 -7.558594 L 7.890625 -8.917969 L 3.292969 -8.917969 L 3.292969 -5.664062 L 6.613281 -5.664062 L 6.613281 -6.882812 L 7.414062 -6.882812 L 7.414062 -3.652344 L 6.613281 -3.652344 L 6.613281 -4.871094 L 3.292969 -4.871094 L 3.292969 -0.691406 L 4.851562 -0.691406 L 4.851562 0 Z "/>
</g>
<g id="glyph-0-1">
<path d="M 6.375 -6.933594 L 6.375 -5.203125 L 5.683594 -5.203125 C 5.660156 -5.542969 5.566406 -5.800781 5.398438 -5.96875 C 5.226562 -6.140625 4.980469 -6.222656 4.65625 -6.222656 C 4.066406 -6.222656 3.613281 -6.019531 3.296875 -5.613281 C 2.984375 -5.203125 2.824219 -4.617188 2.824219 -3.855469 L 2.824219 -0.691406 L 4.210938 -0.691406 L 4.210938 0 L 0.546875 0 L 0.546875 -0.691406 L 1.628906 -0.691406 L 1.628906 -6.238281 L 0.480469 -6.238281 L 0.480469 -6.921875 L 2.824219 -6.921875 L 2.824219 -5.691406 C 3.058594 -6.171875 3.363281 -6.527344 3.730469 -6.761719 C 4.097656 -6.992188 4.546875 -7.109375 5.078125 -7.109375 C 5.273438 -7.109375 5.476562 -7.09375 5.691406 -7.0625 C 5.90625 -7.035156 6.136719 -6.988281 6.375 -6.933594 Z "/>
</g>
<g id="glyph-0-2">
<path d="M 5.304688 -2.175781 L 5.304688 -3.640625 L 3.761719 -3.640625 C 3.167969 -3.640625 2.726562 -3.511719 2.433594 -3.253906 C 2.144531 -3 2 -2.605469 2 -2.078125 C 2 -1.59375 2.144531 -1.214844 2.441406 -0.929688 C 2.738281 -0.648438 3.136719 -0.507812 3.640625 -0.507812 C 4.136719 -0.507812 4.539062 -0.660156 4.847656 -0.96875 C 5.152344 -1.277344 5.304688 -1.679688 5.304688 -2.175781 M 6.503906 -4.324219 L 6.503906 -0.691406 L 7.570312 -0.691406 L 7.570312 0 L 5.304688 0 L 5.304688 -0.75 C 5.042969 -0.425781 4.734375 -0.191406 4.386719 -0.0390625 C 4.039062 0.113281 3.636719 0.1875 3.171875 0.1875 C 2.402344 0.1875 1.792969 -0.015625 1.339844 -0.421875 C 0.890625 -0.832031 0.664062 -1.382812 0.664062 -2.078125 C 0.664062 -2.792969 0.921875 -3.347656 1.4375 -3.742188 C 1.957031 -4.136719 2.683594 -4.335938 3.625 -4.335938 L 5.304688 -4.335938 L 5.304688 -4.8125 C 5.304688 -5.335938 5.144531 -5.742188 4.828125 -6.03125 C 4.507812 -6.320312 4.058594 -6.464844 3.484375 -6.464844 C 3.003906 -6.464844 2.625 -6.355469 2.34375 -6.140625 C 2.0625 -5.921875 1.886719 -5.601562 1.816406 -5.175781 L 1.199219 -5.175781 L 1.199219 -6.574219 C 1.613281 -6.753906 2.019531 -6.886719 2.414062 -6.976562 C 2.804688 -7.066406 3.1875 -7.109375 3.5625 -7.109375 C 4.519531 -7.109375 5.25 -6.871094 5.75 -6.394531 C 6.253906 -5.921875 6.503906 -5.230469 6.503906 -4.324219 Z "/>
</g>
<g id="glyph-0-3">
<path d="M 6.90625 -5.574219 C 7.136719 -6.082031 7.429688 -6.464844 7.789062 -6.722656 C 8.148438 -6.980469 8.566406 -7.109375 9.042969 -7.109375 C 9.769531 -7.109375 10.308594 -6.882812 10.664062 -6.433594 C 11.019531 -5.984375 11.199219 -5.308594 11.199219 -4.402344 L 11.199219 -0.691406 L 12.277344 -0.691406 L 12.277344 0 L 8.957031 0 L 8.957031 -0.691406 L 10 -0.691406 L 10 -4.265625 C 10 -4.972656 9.894531 -5.476562 9.6875 -5.773438 C 9.480469 -6.074219 9.132812 -6.222656 8.652344 -6.222656 C 8.117188 -6.222656 7.710938 -6.023438 7.429688 -5.617188 C 7.152344 -5.214844 7.011719 -4.625 7.011719 -3.855469 L 7.011719 -0.691406 L 8.054688 -0.691406 L 8.054688 0 L 4.773438 0 L 4.773438 -0.691406 L 5.8125 -0.691406 L 5.8125 -4.308594 C 5.8125 -5 5.710938 -5.492188 5.5 -5.785156 C 5.292969 -6.078125 4.949219 -6.222656 4.464844 -6.222656 C 3.933594 -6.222656 3.523438 -6.023438 3.246094 -5.617188 C 2.964844 -5.214844 2.824219 -4.625 2.824219 -3.855469 L 2.824219 -0.691406 L 3.867188 -0.691406 L 3.867188 0 L 0.546875 0 L 0.546875 -0.691406 L 1.628906 -0.691406 L 1.628906 -6.238281 L 0.480469 -6.238281 L 0.480469 -6.921875 L 2.824219 -6.921875 L 2.824219 -5.691406 C 3.046875 -6.148438 3.328125 -6.5 3.671875 -6.746094 C 4.015625 -6.988281 4.402344 -7.109375 4.835938 -7.109375 C 5.375 -7.109375 5.824219 -6.976562 6.183594 -6.707031 C 6.546875 -6.441406 6.785156 -6.0625 6.90625 -5.574219 Z "/>
</g>
<g id="glyph-0-4">
<path d="M 7.226562 -3.332031 L 2.0625 -3.332031 L 2.0625 -3.28125 C 2.0625 -2.347656 2.238281 -1.644531 2.589844 -1.167969 C 2.941406 -0.691406 3.460938 -0.457031 4.148438 -0.457031 C 4.671875 -0.457031 5.101562 -0.59375 5.4375 -0.867188 C 5.777344 -1.144531 6.011719 -1.554688 6.144531 -2.097656 L 7.109375 -2.097656 C 6.917969 -1.335938 6.566406 -0.765625 6.050781 -0.382812 C 5.535156 -0.00390625 4.859375 0.1875 4.023438 0.1875 C 3.011719 0.1875 2.199219 -0.144531 1.585938 -0.808594 C 0.972656 -1.476562 0.664062 -2.359375 0.664062 -3.464844 C 0.664062 -4.558594 0.964844 -5.4375 1.570312 -6.105469 C 2.171875 -6.773438 2.964844 -7.109375 3.945312 -7.109375 C 4.992188 -7.109375 5.792969 -6.785156 6.355469 -6.140625 C 6.914062 -5.496094 7.203125 -4.5625 7.226562 -3.332031 M 5.8125 -4.023438 C 5.789062 -4.832031 5.617188 -5.4375 5.300781 -5.847656 C 4.988281 -6.257812 4.535156 -6.464844 3.945312 -6.464844 C 3.394531 -6.464844 2.960938 -6.257812 2.644531 -5.847656 C 2.328125 -5.433594 2.132812 -4.828125 2.0625 -4.023438 Z "/>
</g>
<g id="glyph-0-5">
</g>
<g id="glyph-0-6">
<path d="M 1.238281 -0.46875 L 1.238281 -2.683594 L 1.984375 -2.675781 C 2.007812 -1.9375 2.222656 -1.390625 2.625 -1.039062 C 3.03125 -0.683594 3.648438 -0.507812 4.480469 -0.507812 C 5.25 -0.507812 5.839844 -0.660156 6.246094 -0.964844 C 6.652344 -1.273438 6.855469 -1.71875 6.855469 -2.304688 C 6.855469 -2.773438 6.734375 -3.132812 6.488281 -3.386719 C 6.242188 -3.636719 5.726562 -3.882812 4.933594 -4.121094 L 3.652344 -4.503906 C 2.722656 -4.789062 2.070312 -5.140625 1.6875 -5.558594 C 1.308594 -5.980469 1.121094 -6.558594 1.121094 -7.292969 C 1.121094 -8.117188 1.414062 -8.757812 2 -9.210938 C 2.585938 -9.667969 3.40625 -9.894531 4.464844 -9.894531 C 4.917969 -9.894531 5.414062 -9.847656 5.949219 -9.75 C 6.488281 -9.652344 7.0625 -9.507812 7.667969 -9.324219 L 7.667969 -7.253906 L 6.933594 -7.253906 C 6.859375 -7.9375 6.628906 -8.433594 6.246094 -8.742188 C 5.863281 -9.046875 5.277344 -9.199219 4.492188 -9.199219 C 3.804688 -9.199219 3.285156 -9.058594 2.925781 -8.78125 C 2.566406 -8.5 2.390625 -8.09375 2.390625 -7.558594 C 2.390625 -7.09375 2.523438 -6.730469 2.792969 -6.464844 C 3.0625 -6.199219 3.632812 -5.9375 4.503906 -5.675781 L 5.710938 -5.320312 C 6.589844 -5.054688 7.21875 -4.71875 7.59375 -4.304688 C 7.96875 -3.894531 8.15625 -3.347656 8.15625 -2.65625 C 8.15625 -1.714844 7.855469 -1.003906 7.253906 -0.527344 C 6.648438 -0.0507812 5.75 0.1875 4.558594 0.1875 C 4.023438 0.1875 3.480469 0.132812 2.925781 0.0273438 C 2.375 -0.0820312 1.808594 -0.246094 1.238281 -0.46875 Z "/>
</g>
</g>
</defs>
<g fill="rgb(100%, 100%, 100%)" fill-opacity="1">
<use xlink:href="#glyph-0-0" x="30" y="32.375977"/>
<use xlink:href="#glyph-0-1" x="39" y="32.375977"/>
<use xlink:href="#glyph-0-2" x="45" y="32.375977"/>
<use xlink:href="#glyph-0-3" x="53" y="32.375977"/>
<use xlink:href="#glyph-0-4" x="66" y="32.375977"/>
<use xlink:href="#glyph-0-5" x="74" y="32.375977"/>
<use xlink:href="#glyph-0-6" x="78" y="32.375977"/>
</g>
</svg>
